<?xml version="1.0" encoding="UTF-8" standalone="no"?>
<!-- Created with Inkscape (http://www.inkscape.org/) -->
<svg xmlns:inkscape="http://www.inkscape.org/namespaces/inkscape" xmlns:rdf="http://www.w3.org/1999/02/22-rdf-syntax-ns#" xmlns="http://www.w3.org/2000/svg" xmlns:xlink="http://www.w3.org/1999/xlink" xmlns:ns1="http://sozi.baierouge.fr" xmlns:cc="http://creativecommons.org/ns#" xmlns:sodipodi="http://sodipodi.sourceforge.net/DTD/sodipodi-0.dtd" xmlns:dc="http://purl.org/dc/elements/1.1/" id="svg2" xml:space="preserve" version="1.0" viewBox="0 0 55.833 48.375" inkscape:version="0.91 r13725">
<filter id="AI_GaussianBlur_4" color-interpolation-filters="sRGB">
	<feGaussianBlur id="feGaussianBlur4725" stdDeviation="1"/>
</filter>
<g id="g4727">
	<g id="g4729" style="opacity:.2;filter:url(#AI_GaussianBlur_4)">
		<path id="path4731" d="m21.799 47.538c4.805-3.298-1.272-5.531-3.75-10.971-1.043-2.292 3.471-8.934 20.334-11.529 33.481-5.156 10.747 17.344-16.584 22.5"/>
	</g>
	<g id="g4733">
		<g id="g4735">
			<path id="path4737" style="fill:#ccffcc" d="m21.799 47.548c2.198-6.595-7.978-11.063-17.353-21.938-3.953-4.585-5.978-17.867 12.103-23.063 35.899-10.312 33.461 34.688 5.25 45.001"/>
		</g>
		<g id="g4739">
			<g id="g4741">
				<path id="path4743" d="m22.775 47.462c1.317-5.144-3.465-8.864-6.855-11.931-4.571-4.134-10.935-8.453-12.738-14.643-4.273-14.646 17.126-21.196 28.016-18.585 9.602 2.301 12.105 12.541 10.52 21.087-2.008 10.818-10.222 19.754-20.332 23.632-1.244 0.479-0.134 1.419 0.832 1.05 10.857-4.166 18.997-13.449 21.449-24.854 2.021-9.393-1.563-19.329-11.336-22.151-10.609-3.062-27.52 2.003-31.067 13.328-1.501 4.79 0.372 9.457 3.524 13.013 3.459 3.9 7.515 7.227 11.333 10.758 2.701 2.499 5.726 5.495 4.704 9.47-0.227 0.876 1.745 0.623 1.95-0.174z"/>
			</g>
		</g>
	</g>
</g>
<metadata><rdf:RDF><cc:Work><dc:format>image/svg+xml</dc:format><dc:type rdf:resource="http://purl.org/dc/dcmitype/StillImage"/><cc:license rdf:resource="http://creativecommons.org/licenses/publicdomain/"/><dc:publisher><cc:Agent rdf:about="http://openclipart.org/"><dc:title>Openclipart</dc:title></cc:Agent></dc:publisher></cc:Work><cc:License rdf:about="http://creativecommons.org/licenses/publicdomain/"><cc:permits rdf:resource="http://creativecommons.org/ns#Reproduction"/><cc:permits rdf:resource="http://creativecommons.org/ns#Distribution"/><cc:permits rdf:resource="http://creativecommons.org/ns#DerivativeWorks"/></cc:License></rdf:RDF></metadata></svg>
